<svg width="492" height="543" viewBox="0 0 492 543" fill="none" xmlns="http://www.w3.org/2000/svg">
<g clip-path="url(#clip0_193_17067)">
<rect width="491.986" height="543" rx="20" fill="#13111C"/>
<path d="M110.332 233.943H136.609V248.261H110.332V233.943ZM111.68 256.009H141.157V271H92.1406V212.046H140.062V227.037H111.68V256.009ZM148.808 271V212.046H177.191C182.693 212.046 187.438 212.944 191.424 214.741C195.467 216.537 198.583 219.12 200.772 222.489C202.962 225.802 204.057 229.732 204.057 234.28C204.057 238.828 202.962 242.758 200.772 246.071C198.583 249.327 195.467 251.826 191.424 253.566C187.438 255.307 182.693 256.177 177.191 256.177H159.841L168.684 248.008V271H148.808ZM184.097 271L169.611 249.524H190.666L205.32 271H184.097ZM168.684 250.198L159.841 241.186H175.927C178.679 241.186 180.7 240.568 181.991 239.333C183.339 238.098 184.013 236.414 184.013 234.28C184.013 232.146 183.339 230.462 181.991 229.227C180.7 227.991 178.679 227.374 175.927 227.374H159.841L168.684 218.362V250.198ZM211.562 271V212.046H239.945C245.447 212.046 250.192 212.944 254.178 214.741C258.221 216.537 261.337 219.12 263.526 222.489C265.716 225.802 266.811 229.732 266.811 234.28C266.811 238.828 265.716 242.758 263.526 246.071C261.337 249.327 258.221 251.826 254.178 253.566C250.192 255.307 245.447 256.177 239.945 256.177H222.595L231.438 248.008V271H211.562ZM246.851 271L232.365 249.524H253.42L268.074 271H246.851ZM231.438 250.198L222.595 241.186H238.681C241.433 241.186 243.454 240.568 244.745 239.333C246.093 238.098 246.767 236.414 246.767 234.28C246.767 232.146 246.093 230.462 244.745 229.227C243.454 227.991 241.433 227.374 238.681 227.374H222.595L231.438 218.362V250.198ZM305.225 272.348C300.453 272.348 296.017 271.59 291.919 270.074C287.876 268.558 284.367 266.424 281.391 263.673C278.415 260.865 276.085 257.581 274.401 253.819C272.772 250.057 271.958 245.958 271.958 241.523C271.958 237.031 272.772 232.932 274.401 229.227C276.085 225.465 278.415 222.208 281.391 219.457C284.367 216.65 287.876 214.488 291.919 212.972C296.017 211.456 300.453 210.698 305.225 210.698C310.054 210.698 314.49 211.456 318.532 212.972C322.575 214.488 326.084 216.65 329.06 219.457C332.036 222.208 334.338 225.465 335.966 229.227C337.65 232.932 338.492 237.031 338.492 241.523C338.492 245.958 337.65 250.057 335.966 253.819C334.338 257.581 332.036 260.865 329.06 263.673C326.084 266.424 322.575 268.558 318.532 270.074C314.49 271.59 310.054 272.348 305.225 272.348ZM305.225 256.261C307.078 256.261 308.791 255.925 310.363 255.251C311.991 254.577 313.395 253.623 314.574 252.387C315.809 251.096 316.764 249.552 317.437 247.755C318.111 245.902 318.448 243.825 318.448 241.523C318.448 239.221 318.111 237.171 317.437 235.375C316.764 233.522 315.809 231.978 314.574 230.743C313.395 229.451 311.991 228.469 310.363 227.795C308.791 227.121 307.078 226.784 305.225 226.784C303.373 226.784 301.632 227.121 300.004 227.795C298.432 228.469 297.028 229.451 295.793 230.743C294.614 231.978 293.687 233.522 293.013 235.375C292.34 237.171 292.003 239.221 292.003 241.523C292.003 243.825 292.34 245.902 293.013 247.755C293.687 249.552 294.614 251.096 295.793 252.387C297.028 253.623 298.432 254.577 300.004 255.251C301.632 255.925 303.373 256.261 305.225 256.261ZM345.706 271V212.046H374.089C379.591 212.046 384.336 212.944 388.322 214.741C392.365 216.537 395.481 219.12 397.67 222.489C399.86 225.802 400.955 229.732 400.955 234.28C400.955 238.828 399.86 242.758 397.67 246.071C395.481 249.327 392.365 251.826 388.322 253.566C384.336 255.307 379.591 256.177 374.089 256.177H356.739L365.582 248.008V271H345.706ZM380.995 271L366.509 249.524H387.564L402.218 271H380.995ZM365.582 250.198L356.739 241.186H372.825C375.577 241.186 377.598 240.568 378.889 239.333C380.237 238.098 380.911 236.414 380.911 234.28C380.911 232.146 380.237 230.462 378.889 229.227C377.598 227.991 375.577 227.374 372.825 227.374H356.739L365.582 218.362V250.198Z" fill="#C67EFE"/>
<path d="M89.0966 333.894V321.261L114.11 285.046H134.491L110.404 321.261L101.14 318.481H146.788V333.894H89.0966ZM119.669 344V333.894L120.258 318.481V309.47H138.955V344H119.669ZM176.257 345.348C171.036 345.348 166.404 344.14 162.361 341.726C158.375 339.312 155.23 335.803 152.928 331.199C150.683 326.594 149.56 321.036 149.56 314.523C149.56 308.01 150.683 302.451 152.928 297.847C155.23 293.243 158.375 289.734 162.361 287.32C166.404 284.905 171.036 283.698 176.257 283.698C181.479 283.698 186.083 284.905 190.07 287.32C194.112 289.734 197.256 293.243 199.502 297.847C201.804 302.451 202.955 308.01 202.955 314.523C202.955 321.036 201.804 326.594 199.502 331.199C197.256 335.803 194.112 339.312 190.07 341.726C186.083 344.14 181.479 345.348 176.257 345.348ZM176.257 329.43C177.549 329.43 178.7 328.981 179.71 328.082C180.721 327.184 181.507 325.64 182.069 323.45C182.686 321.261 182.995 318.285 182.995 314.523C182.995 310.705 182.686 307.729 182.069 305.596C181.507 303.406 180.721 301.862 179.71 300.963C178.7 300.065 177.549 299.616 176.257 299.616C174.966 299.616 173.815 300.065 172.804 300.963C171.794 301.862 170.98 303.406 170.362 305.596C169.801 307.729 169.52 310.705 169.52 314.523C169.52 318.285 169.801 321.261 170.362 323.45C170.98 325.64 171.794 327.184 172.804 328.082C173.815 328.981 174.966 329.43 176.257 329.43ZM207.367 333.894V321.261L232.38 285.046H252.762L228.675 321.261L219.411 318.481H265.058V333.894H207.367ZM237.939 344V333.894L238.529 318.481V309.47H257.225V344H237.939Z" fill="white"/>
<path d="M286.03 343.39C285.41 343.39 284.853 343.251 284.359 342.973C283.865 342.685 283.474 342.272 283.186 341.733C282.899 341.194 282.755 340.543 282.755 339.779C282.755 339.006 282.899 338.355 283.186 337.825C283.483 337.286 283.878 336.877 284.372 336.599C284.866 336.32 285.419 336.181 286.03 336.181C286.703 336.181 287.305 336.334 287.835 336.639C288.374 336.936 288.796 337.353 289.102 337.892C289.407 338.431 289.56 339.06 289.56 339.779C289.56 340.489 289.407 341.118 289.102 341.666C288.796 342.205 288.374 342.627 287.835 342.932C287.305 343.238 286.703 343.39 286.03 343.39ZM282.378 343.323V333.324H283.334V338.337L283.2 339.766L283.294 341.194V343.323H282.378ZM285.962 342.541C286.465 342.541 286.914 342.429 287.31 342.205C287.705 341.971 288.019 341.648 288.253 341.234C288.487 340.812 288.603 340.327 288.603 339.779C288.603 339.222 288.487 338.737 288.253 338.324C288.019 337.91 287.705 337.592 287.31 337.367C286.914 337.133 286.465 337.017 285.962 337.017C285.459 337.017 285.005 337.133 284.601 337.367C284.206 337.592 283.891 337.91 283.658 338.324C283.433 338.737 283.321 339.222 283.321 339.779C283.321 340.327 283.433 340.812 283.658 341.234C283.891 341.648 284.206 341.971 284.601 342.205C285.005 342.429 285.459 342.541 285.962 342.541ZM295.904 343.323V341.76L295.864 341.504V338.89C295.864 338.288 295.693 337.825 295.352 337.502C295.019 337.178 294.521 337.017 293.856 337.017C293.398 337.017 292.962 337.093 292.549 337.246C292.136 337.398 291.785 337.601 291.498 337.852L291.067 337.138C291.426 336.832 291.857 336.599 292.36 336.437C292.863 336.266 293.393 336.181 293.95 336.181C294.867 336.181 295.572 336.41 296.066 336.868C296.569 337.318 296.821 338.005 296.821 338.93V343.323H295.904ZM293.465 343.39C292.935 343.39 292.473 343.305 292.077 343.134C291.691 342.955 291.395 342.712 291.188 342.407C290.981 342.092 290.878 341.733 290.878 341.329C290.878 340.96 290.963 340.628 291.134 340.331C291.314 340.026 291.601 339.783 291.996 339.604C292.401 339.415 292.94 339.321 293.613 339.321H296.052V340.035H293.64C292.958 340.035 292.482 340.156 292.212 340.399C291.952 340.641 291.821 340.942 291.821 341.302C291.821 341.706 291.978 342.029 292.293 342.272C292.607 342.514 293.048 342.636 293.613 342.636C294.152 342.636 294.615 342.514 295.001 342.272C295.397 342.02 295.684 341.661 295.864 341.194L296.079 341.854C295.9 342.321 295.585 342.694 295.136 342.973C294.696 343.251 294.139 343.39 293.465 343.39ZM302.357 343.39C301.656 343.39 301.027 343.238 300.47 342.932C299.922 342.618 299.491 342.191 299.177 341.652C298.862 341.104 298.705 340.48 298.705 339.779C298.705 339.069 298.862 338.445 299.177 337.906C299.491 337.367 299.922 336.945 300.47 336.639C301.027 336.334 301.656 336.181 302.357 336.181C302.959 336.181 303.502 336.298 303.987 336.531C304.472 336.765 304.854 337.115 305.133 337.583L304.419 338.068C304.176 337.708 303.875 337.443 303.516 337.273C303.156 337.102 302.766 337.017 302.343 337.017C301.84 337.017 301.387 337.133 300.982 337.367C300.578 337.592 300.259 337.91 300.026 338.324C299.792 338.737 299.675 339.222 299.675 339.779C299.675 340.336 299.792 340.821 300.026 341.234C300.259 341.648 300.578 341.971 300.982 342.205C301.387 342.429 301.84 342.541 302.343 342.541C302.766 342.541 303.156 342.456 303.516 342.285C303.875 342.115 304.176 341.854 304.419 341.504L305.133 341.989C304.854 342.447 304.472 342.797 303.987 343.04C303.502 343.274 302.959 343.39 302.357 343.39ZM307.662 341.49L307.688 340.264L312.095 336.248H313.267L310.154 339.227L309.615 339.685L307.662 341.49ZM306.907 343.323V333.324H307.864V343.323H306.907ZM312.391 343.323L309.44 339.644L310.06 338.903L313.564 343.323H312.391ZM320.764 343.39C320.099 343.39 319.587 343.211 319.227 342.851C318.868 342.492 318.688 341.984 318.688 341.329V334.685H319.645V341.275C319.645 341.688 319.748 342.007 319.955 342.232C320.171 342.456 320.476 342.568 320.871 342.568C321.294 342.568 321.644 342.447 321.922 342.205L322.259 342.892C322.071 343.062 321.842 343.188 321.572 343.269C321.312 343.35 321.042 343.39 320.764 343.39ZM317.422 337.044V336.248H321.801V337.044H317.422ZM326.635 343.39C325.952 343.39 325.337 343.238 324.789 342.932C324.25 342.618 323.823 342.191 323.508 341.652C323.194 341.104 323.037 340.48 323.037 339.779C323.037 339.069 323.194 338.445 323.508 337.906C323.823 337.367 324.25 336.945 324.789 336.639C325.328 336.334 325.943 336.181 326.635 336.181C327.335 336.181 327.955 336.334 328.494 336.639C329.042 336.945 329.469 337.367 329.774 337.906C330.089 338.445 330.246 339.069 330.246 339.779C330.246 340.48 330.089 341.104 329.774 341.652C329.469 342.191 329.042 342.618 328.494 342.932C327.946 343.238 327.326 343.39 326.635 343.39ZM326.635 342.541C327.147 342.541 327.6 342.429 327.996 342.205C328.391 341.971 328.701 341.648 328.925 341.234C329.159 340.812 329.276 340.327 329.276 339.779C329.276 339.222 329.159 338.737 328.925 338.324C328.701 337.91 328.391 337.592 327.996 337.367C327.6 337.133 327.151 337.017 326.648 337.017C326.145 337.017 325.696 337.133 325.301 337.367C324.905 337.592 324.591 337.91 324.357 338.324C324.124 338.737 324.007 339.222 324.007 339.779C324.007 340.327 324.124 340.812 324.357 341.234C324.591 341.648 324.905 341.971 325.301 342.205C325.696 342.429 326.141 342.541 326.635 342.541ZM339.337 336.181C339.912 336.181 340.415 336.293 340.847 336.518C341.287 336.734 341.628 337.066 341.871 337.515C342.122 337.964 342.248 338.53 342.248 339.213V343.323H341.291V339.307C341.291 338.562 341.103 338 340.725 337.623C340.357 337.237 339.836 337.044 339.162 337.044C338.659 337.044 338.219 337.147 337.842 337.353C337.473 337.551 337.186 337.843 336.979 338.229C336.782 338.607 336.683 339.065 336.683 339.604V343.323H335.726V333.324H336.683V338.189L336.494 337.825C336.719 337.313 337.078 336.913 337.572 336.626C338.066 336.329 338.655 336.181 339.337 336.181ZM347.716 343.39C347.033 343.39 346.418 343.238 345.87 342.932C345.331 342.618 344.904 342.191 344.59 341.652C344.275 341.104 344.118 340.48 344.118 339.779C344.118 339.069 344.275 338.445 344.59 337.906C344.904 337.367 345.331 336.945 345.87 336.639C346.409 336.334 347.024 336.181 347.716 336.181C348.417 336.181 349.037 336.334 349.576 336.639C350.124 336.945 350.55 337.367 350.856 337.906C351.17 338.445 351.327 339.069 351.327 339.779C351.327 340.48 351.17 341.104 350.856 341.652C350.55 342.191 350.124 342.618 349.576 342.932C349.028 343.238 348.408 343.39 347.716 343.39ZM347.716 342.541C348.228 342.541 348.682 342.429 349.077 342.205C349.472 341.971 349.782 341.648 350.007 341.234C350.24 340.812 350.357 340.327 350.357 339.779C350.357 339.222 350.24 338.737 350.007 338.324C349.782 337.91 349.472 337.592 349.077 337.367C348.682 337.133 348.233 337.017 347.73 337.017C347.227 337.017 346.777 337.133 346.382 337.367C345.987 337.592 345.672 337.91 345.439 338.324C345.205 338.737 345.088 339.222 345.088 339.779C345.088 340.327 345.205 340.812 345.439 341.234C345.672 341.648 345.987 341.971 346.382 342.205C346.777 342.429 347.222 342.541 347.716 342.541ZM362.121 336.181C362.695 336.181 363.194 336.293 363.616 336.518C364.047 336.734 364.38 337.066 364.613 337.515C364.856 337.964 364.977 338.53 364.977 339.213V343.323H364.021V339.307C364.021 338.562 363.841 338 363.482 337.623C363.131 337.237 362.633 337.044 361.986 337.044C361.501 337.044 361.078 337.147 360.719 337.353C360.369 337.551 360.095 337.843 359.897 338.229C359.708 338.607 359.614 339.065 359.614 339.604V343.323H358.657V339.307C358.657 338.562 358.478 338 358.118 337.623C357.759 337.237 357.256 337.044 356.609 337.044C356.133 337.044 355.715 337.147 355.356 337.353C354.997 337.551 354.718 337.843 354.52 338.229C354.332 338.607 354.237 339.065 354.237 339.604V343.323H353.281V336.248H354.197V338.162L354.049 337.825C354.264 337.313 354.61 336.913 355.086 336.626C355.572 336.329 356.142 336.181 356.798 336.181C357.49 336.181 358.078 336.356 358.563 336.707C359.048 337.048 359.363 337.565 359.506 338.256L359.129 338.108C359.336 337.533 359.699 337.07 360.221 336.72C360.751 336.361 361.384 336.181 362.121 336.181ZM370.577 343.39C369.84 343.39 369.193 343.238 368.636 342.932C368.079 342.618 367.644 342.191 367.329 341.652C367.015 341.104 366.858 340.48 366.858 339.779C366.858 339.078 367.006 338.458 367.302 337.919C367.608 337.38 368.021 336.958 368.542 336.653C369.072 336.338 369.665 336.181 370.321 336.181C370.986 336.181 371.574 336.334 372.086 336.639C372.607 336.936 373.016 337.358 373.312 337.906C373.609 338.445 373.757 339.069 373.757 339.779C373.757 339.824 373.753 339.873 373.744 339.927C373.744 339.972 373.744 340.022 373.744 340.075H367.585V339.361H373.231L372.854 339.644C372.854 339.132 372.742 338.679 372.517 338.283C372.302 337.879 372.005 337.565 371.628 337.34C371.251 337.115 370.815 337.003 370.321 337.003C369.836 337.003 369.4 337.115 369.014 337.34C368.627 337.565 368.327 337.879 368.111 338.283C367.895 338.688 367.787 339.15 367.787 339.671V339.819C367.787 340.358 367.904 340.835 368.138 341.248C368.38 341.652 368.713 341.971 369.135 342.205C369.566 342.429 370.056 342.541 370.604 342.541C371.035 342.541 371.435 342.465 371.803 342.312C372.18 342.16 372.504 341.926 372.773 341.612L373.312 342.232C372.998 342.609 372.603 342.896 372.127 343.094C371.659 343.292 371.143 343.39 370.577 343.39Z" fill="#C67EFE"/>
<path fill-rule="evenodd" clip-rule="evenodd" d="M389.487 334.181C389.603 334.065 389.76 334 389.924 334C390.088 334 390.245 334.065 390.36 334.181L394.066 337.886C394.182 338.002 394.247 338.159 394.247 338.323C394.247 338.487 394.182 338.644 394.066 338.76L390.36 342.465C390.303 342.524 390.235 342.571 390.16 342.604C390.085 342.636 390.004 342.653 389.922 342.654C389.84 342.654 389.758 342.639 389.682 342.608C389.606 342.577 389.537 342.531 389.479 342.473C389.421 342.415 389.376 342.346 389.345 342.27C389.314 342.194 389.298 342.113 389.299 342.031C389.299 341.949 389.316 341.868 389.349 341.792C389.381 341.717 389.428 341.649 389.487 341.592L392.139 338.941H384.983C384.819 338.941 384.662 338.875 384.546 338.76C384.43 338.644 384.365 338.487 384.365 338.323C384.365 338.159 384.43 338.002 384.546 337.886C384.662 337.77 384.819 337.705 384.983 337.705H392.139L389.487 335.054C389.371 334.938 389.306 334.781 389.306 334.617C389.306 334.453 389.371 334.296 389.487 334.181Z" fill="#C67EFE"/>
<g filter="url(#filter0_f_193_17067)">
<path d="M97.8399 600.651C-59.0564 578.838 -4.65405 410.664 7.17772 325.558C19.0095 240.452 -42.7182 494.746 114.178 516.558C271.074 538.37 415.181 400.942 403.349 486.048C391.517 571.154 254.736 622.463 97.8399 600.651Z" fill="#C67EFE"/>
</g>
</g>
<defs>
<filter id="filter0_f_193_17067" x="-144.639" y="175.096" width="681.77" height="563.674" filterUnits="userSpaceOnUse" color-interpolation-filters="sRGB">
<feFlood flood-opacity="0" result="BackgroundImageFix"/>
<feBlend mode="normal" in="SourceGraphic" in2="BackgroundImageFix" result="shape"/>
<feGaussianBlur stdDeviation="66.55" result="effect1_foregroundBlur_193_17067"/>
</filter>
<clipPath id="clip0_193_17067">
<rect width="491.986" height="543" rx="20" fill="white"/>
</clipPath>
</defs>
</svg>
