<svg width="20" height="20" viewBox="0 0 20 20" fill="none" xmlns="http://www.w3.org/2000/svg">
<rect width="20" height="20" rx="10" fill="black"/>
<path d="M5.67342 13.1039C5.07258 12.4657 4.75 11.75 4.75 10.5897C4.75 8.54808 6.18325 6.71817 8.2675 5.81342L8.78842 6.61725C6.843 7.66958 6.46267 9.03517 6.311 9.89617C6.62425 9.734 7.03433 9.67742 7.43625 9.71475C8.48858 9.81217 9.31808 10.6761 9.31808 11.75C9.31808 12.2915 9.10298 12.8108 8.72009 13.1937C8.33721 13.5766 7.8179 13.7917 7.27642 13.7917C6.6505 13.7917 6.052 13.5058 5.67342 13.1039ZM11.5068 13.1039C10.9059 12.4657 10.5833 11.75 10.5833 10.5897C10.5833 8.54808 12.0166 6.71817 14.1008 5.81342L14.6218 6.61725C12.6763 7.66958 12.296 9.03517 12.1443 9.89617C12.4576 9.734 12.8677 9.67742 13.2696 9.71475C14.3219 9.81217 15.1514 10.6761 15.1514 11.75C15.1514 12.2915 14.9363 12.8108 14.5534 13.1937C14.1705 13.5766 13.6512 13.7917 13.1097 13.7917C12.4838 13.7917 11.8853 13.5058 11.5068 13.1039Z" fill="white"/>
</svg>
