<svg width="1280" height="680" viewBox="0 0 1280 680" fill="none" xmlns="http://www.w3.org/2000/svg">
<g clip-path="url(#clip0_45_13009)">
<rect width="1280" height="680" rx="20" fill="white"/>
<rect width="758" height="680" fill="white"/>
<g clip-path="url(#clip1_45_13009)">
<path d="M345.263 303.466C345.263 324.472 359.966 339.178 377.485 345.228C378.39 345.565 379.385 345.58 380.3 345.27C397.777 339.178 412.481 328.675 412.481 307.67L412.367 301.366M410.266 301.366C410.266 301.366 342.325 301.517 345.263 267.757C346.05 266.969 356.752 271.958 357.866 271.958C366.268 271.958 368.368 269.019 375.678 262.633C376.569 261.873 377.701 261.455 378.871 261.455C380.042 261.455 381.174 261.873 382.064 262.633C389.416 269.061 393.576 271.958 401.978 271.958C403.092 271.958 411.693 266.969 412.481 267.757C413.269 268.545 412.481 277.147 412.481 278.261L412.481 284.561" stroke="#DD3418" stroke-width="8.4023" stroke-linecap="square" stroke-linejoin="round"/>
<path d="M260.278 374.1C261.401 374.1 262.907 374.151 264.796 374.253C266.685 374.355 268.651 374.508 270.693 374.713C272.735 374.866 274.522 375.044 276.054 375.249C277.585 375.402 278.581 375.58 279.04 375.785L277.509 387.348H276.743C276.743 384.54 275.645 382.268 273.45 380.533C271.306 378.797 268.345 377.929 264.567 377.929C261.452 377.929 258.976 378.542 257.138 379.767C255.3 380.941 254.305 382.473 254.152 384.362C253.999 386.2 254.611 387.629 255.99 388.65C257.419 389.671 259.078 390.616 260.967 391.484L275.288 398.146C278.147 399.422 280.393 401.286 282.027 403.736C283.66 406.187 284.35 409.276 284.094 413.002C283.737 418.465 281.44 422.651 277.202 425.561C273.016 428.42 267.298 429.85 260.048 429.85C257.087 429.85 254.407 429.62 252.007 429.161C249.608 428.701 247.54 428.114 245.805 427.399C244.12 426.634 242.818 425.791 241.899 424.872C241.337 423.596 241.108 422.039 241.21 420.201C241.312 418.363 241.644 416.551 242.205 414.764C242.818 412.926 243.533 411.471 244.35 410.399H245.039C244.886 413.053 245.447 415.581 246.723 417.98C248 420.38 249.914 422.32 252.467 423.8C255.02 425.281 258.083 426.021 261.657 426.021C265.332 426.021 268.038 425.255 269.774 423.724C271.561 422.192 272.454 420.456 272.454 418.516C272.454 416.882 271.816 415.402 270.54 414.075C269.315 412.747 267.247 411.42 264.337 410.092L251.854 404.272C248.332 402.639 245.753 400.392 244.12 397.533C242.537 394.674 241.976 391.432 242.435 387.808C242.792 384.847 243.737 382.345 245.268 380.303C246.8 378.261 248.817 376.729 251.318 375.708C253.871 374.636 256.858 374.1 260.278 374.1ZM279.193 374.866L278.964 376.474H267.859V374.866H279.193ZM309.213 380.073L332.952 428.395H315.569L302.627 398.835L309.213 380.073ZM295.045 424.106C294.484 425.383 294.56 426.353 295.275 427.016C295.99 427.68 296.781 428.012 297.649 428.012H298.185V428.778H282.41V428.012C282.41 428.012 282.512 428.012 282.716 428.012C282.92 428.012 283.022 428.012 283.022 428.012C284.043 428.012 285.115 427.731 286.239 427.17C287.362 426.557 288.255 425.536 288.919 424.106H295.045ZM309.213 380.073L309.136 391.79L293.054 428.548H286.851L304.618 390.258C304.822 389.748 305.128 389.058 305.537 388.191C305.945 387.272 306.354 386.302 306.762 385.281C307.221 384.208 307.63 383.213 307.987 382.294C308.345 381.375 308.549 380.635 308.6 380.073H309.213ZM314.343 415.606V419.052H295.275V415.606H314.343ZM313.654 424.106H330.808C331.523 425.536 332.442 426.557 333.565 427.17C334.688 427.731 335.76 428.012 336.781 428.012C336.781 428.012 336.883 428.012 337.088 428.012C337.292 428.012 337.394 428.012 337.394 428.012V428.778H310.438V428.012H311.05C311.918 428.012 312.71 427.68 313.424 427.016C314.139 426.353 314.216 425.383 313.654 424.106ZM355.454 382.83V428.778H340.444V382.83H355.454ZM369.698 404.349V407.948H355.301V404.349H369.698ZM373.067 382.83V386.353H355.301V382.83H373.067ZM369.698 407.795V416.066H368.932V415.759C368.932 413.513 368.217 411.675 366.788 410.246C365.409 408.765 363.572 407.999 361.274 407.948V407.795H369.698ZM369.698 396.308V404.502H361.274V404.349C363.572 404.298 365.409 403.532 366.788 402.052C368.217 400.571 368.932 398.708 368.932 396.461V396.308H369.698ZM373.067 386.123V396.308H372.302V395.849C372.302 392.887 371.51 390.59 369.928 388.956C368.396 387.272 366.15 386.404 363.189 386.353V386.123H373.067ZM373.067 381.681V383.519L365.486 382.83C366.405 382.83 367.375 382.779 368.396 382.677C369.417 382.524 370.362 382.371 371.23 382.217C372.097 382.013 372.71 381.834 373.067 381.681ZM340.674 424.03L340.598 428.778H335.62V428.012C335.62 428.012 335.748 428.012 336.003 428.012C336.258 428.012 336.411 428.012 336.462 428.012C337.534 428.012 338.453 427.629 339.219 426.863C340.036 426.098 340.444 425.153 340.444 424.03H340.674ZM340.674 387.655H340.444C340.444 386.48 340.036 385.51 339.219 384.744C338.453 383.979 337.534 383.596 336.462 383.596C336.411 383.596 336.258 383.596 336.003 383.596C335.748 383.596 335.62 383.596 335.62 383.596V382.83H340.598L340.674 387.655ZM355.301 424.03H355.454C355.505 425.153 355.914 426.098 356.679 426.863C357.445 427.629 358.39 428.012 359.513 428.012C359.513 428.012 359.64 428.012 359.896 428.012C360.151 428.012 360.304 428.012 360.355 428.012L360.279 428.778H355.378L355.301 424.03ZM396.96 382.83V428.778H381.95V382.83H396.96ZM413.118 425.255L416.181 428.778H396.807V425.255H413.118ZM411.204 404.349V407.948H396.807V404.349H411.204ZM414.573 382.83V386.353H396.807V382.83H414.573ZM418.479 412.696L416.334 428.778H402.091L404.311 425.255C406.302 425.255 408.191 424.77 409.978 423.8C411.816 422.779 413.424 421.35 414.803 419.512C416.181 417.623 417.177 415.351 417.789 412.696H418.479ZM411.204 407.795V416.066H410.438V415.759C410.438 413.513 409.723 411.675 408.294 410.246C406.915 408.765 405.103 407.999 402.856 407.948V407.795H411.204ZM411.204 396.308V404.502H402.856V404.349C405.103 404.298 406.915 403.532 408.294 402.052C409.723 400.571 410.438 398.708 410.438 396.461V396.308H411.204ZM414.573 386.2V396.155H413.807V395.772C413.807 392.811 413.041 390.514 411.51 388.88C409.978 387.246 407.757 386.404 404.847 386.353V386.2H414.573ZM414.573 381.681V383.519L406.992 382.83C408.37 382.83 409.825 382.702 411.357 382.447C412.939 382.141 414.011 381.886 414.573 381.681ZM382.18 424.03L382.103 428.778H377.126V428.012C377.126 428.012 377.253 428.012 377.508 428.012C377.764 428.012 377.917 428.012 377.968 428.012C379.04 428.012 379.959 427.629 380.725 426.863C381.542 426.098 381.95 425.153 381.95 424.03H382.18ZM382.18 387.655H381.95C381.95 386.48 381.542 385.51 380.725 384.744C379.959 383.979 379.04 383.596 377.968 383.596C377.917 383.596 377.764 383.596 377.508 383.596C377.253 383.596 377.126 383.596 377.126 383.596V382.83H382.103L382.18 387.655ZM443.995 429.697L420.561 383.213H438.098L450.504 410.935L443.995 429.697ZM443.995 429.697L443.841 418.44L459.847 383.06H465.973L448.589 419.435C448.385 419.895 448.079 420.584 447.67 421.503C447.262 422.371 446.828 423.341 446.369 424.413C445.96 425.434 445.577 426.429 445.22 427.399C444.914 428.318 444.709 429.084 444.607 429.697H443.995ZM457.779 387.578C458.341 386.251 458.264 385.255 457.549 384.591C456.886 383.877 456.12 383.519 455.252 383.519H454.639V382.83H470.338V383.596C470.338 383.596 470.236 383.596 470.032 383.596C469.828 383.596 469.725 383.596 469.725 383.596C468.755 383.596 467.709 383.902 466.586 384.515C465.462 385.076 464.544 386.097 463.829 387.578H457.779ZM440.012 387.578H422.782C422.067 386.097 421.148 385.076 420.025 384.515C418.953 383.902 417.906 383.596 416.885 383.596C416.885 383.596 416.809 383.596 416.656 383.596C416.451 383.596 416.349 383.596 416.349 383.596V382.83H443.229V383.519H442.616C441.799 383.519 441.034 383.877 440.319 384.591C439.604 385.255 439.502 386.251 440.012 387.578ZM489.244 382.83V428.778H474.235V382.83H489.244ZM505.403 425.255L508.466 428.778H489.091V425.255H505.403ZM503.488 404.349V407.948H489.091V404.349H503.488ZM506.858 382.83V386.353H489.091V382.83H506.858ZM510.763 412.696L508.619 428.778H494.375L496.596 425.255C498.587 425.255 500.476 424.77 502.263 423.8C504.101 422.779 505.709 421.35 507.087 419.512C508.466 417.623 509.461 415.351 510.074 412.696H510.763ZM503.488 407.795V416.066H502.722V415.759C502.722 413.513 502.008 411.675 500.578 410.246C499.2 408.765 497.387 407.999 495.141 407.948V407.795H503.488ZM503.488 396.308V404.502H495.141V404.349C497.387 404.298 499.2 403.532 500.578 402.052C502.008 400.571 502.722 398.708 502.722 396.461V396.308H503.488ZM506.858 386.2V396.155H506.092V395.772C506.092 392.811 505.326 390.514 503.794 388.88C502.263 387.246 500.042 386.404 497.132 386.353V386.2H506.858ZM506.858 381.681V383.519L499.276 382.83C500.655 382.83 502.11 382.702 503.641 382.447C505.224 382.141 506.296 381.886 506.858 381.681ZM474.464 424.03L474.388 428.778H469.41V428.012C469.41 428.012 469.538 428.012 469.793 428.012C470.048 428.012 470.201 428.012 470.252 428.012C471.325 428.012 472.244 427.629 473.009 426.863C473.826 426.098 474.235 425.153 474.235 424.03H474.464ZM474.464 387.655H474.235C474.235 386.48 473.826 385.51 473.009 384.744C472.244 383.979 471.325 383.596 470.252 383.596C470.201 383.596 470.048 383.596 469.793 383.596C469.538 383.596 469.41 383.596 469.41 383.596V382.83H474.388L474.464 387.655Z" fill="#222222"/>
</g>
<path d="M14.2252 15.7826H15.4599L19.2338 26.913L22.9904 15.7826H24.2252L19.8773 28.3043H18.573L14.2252 15.7826ZM31.3667 23.1739C31.3667 22.7333 31.303 22.3217 31.1754 21.9391C31.0595 21.5449 30.8798 21.2087 30.6363 20.9304C30.4044 20.6406 30.1088 20.4145 29.7493 20.2521C29.3899 20.0782 28.9783 19.9913 28.5146 19.9913C28.0508 19.9913 27.6392 20.0782 27.2798 20.2521C26.9319 20.4261 26.6305 20.6579 26.3754 20.9478C26.1319 21.2377 25.9348 21.5739 25.7841 21.9565C25.6334 22.3391 25.5348 22.7449 25.4885 23.1739H31.3667ZM25.4885 24.0435C25.4885 24.5304 25.5522 24.9942 25.6798 25.4348C25.8073 25.8637 25.9928 26.2406 26.2363 26.5652C26.4914 26.8782 26.8102 27.1333 27.1928 27.3304C27.5754 27.5159 28.016 27.6087 28.5146 27.6087C29.1986 27.6087 29.7841 27.429 30.2711 27.0695C30.758 26.7101 31.0827 26.2 31.245 25.5391H32.4102C32.2827 25.9681 32.1146 26.3681 31.9059 26.7391C31.6972 27.0985 31.4363 27.4174 31.1233 27.6956C30.8102 27.9623 30.4392 28.171 30.0102 28.3217C29.5812 28.4724 29.0827 28.5478 28.5146 28.5478C27.7957 28.5478 27.1754 28.4261 26.6537 28.1826C26.1319 27.9391 25.703 27.6087 25.3667 27.1913C25.0305 26.7623 24.7812 26.2637 24.6189 25.6956C24.4566 25.1159 24.3754 24.4956 24.3754 23.8348C24.3754 23.1739 24.4682 22.5536 24.6537 21.9739C24.8508 21.3942 25.1233 20.8898 25.4711 20.4608C25.8305 20.0203 26.2653 19.6782 26.7754 19.4348C27.2856 19.1797 27.8653 19.0521 28.5146 19.0521C29.7551 19.0521 30.729 19.4811 31.4363 20.3391C32.1435 21.1855 32.4914 22.4203 32.4798 24.0435H25.4885ZM35.6044 28.3043H34.5609V19.2956H35.6044V20.9826H35.6391C35.929 20.2637 36.3 19.7652 36.7522 19.4869C37.216 19.1971 37.8247 19.0521 38.5783 19.0521V20.1826C37.987 20.171 37.5 20.2637 37.1174 20.4608C36.7348 20.6579 36.4276 20.9246 36.1957 21.2608C35.9754 21.5971 35.8189 21.9971 35.7261 22.4608C35.6449 22.913 35.6044 23.3884 35.6044 23.8869V28.3043ZM43.7711 28.3391C43.6435 28.3623 43.4754 28.4029 43.2667 28.4608C43.058 28.5188 42.8261 28.5478 42.5711 28.5478C42.0493 28.5478 41.6493 28.4203 41.3711 28.1652C41.1044 27.8985 40.9711 27.429 40.9711 26.7565V20.1652H39.7015V19.2956H40.9711V16.7913H42.0146V19.2956H43.7015V20.1652H42.0146V26.3391C42.0146 26.5594 42.0204 26.7507 42.0319 26.913C42.0435 27.0753 42.0783 27.2087 42.1363 27.313C42.1943 27.4174 42.2812 27.4927 42.3972 27.5391C42.5247 27.5855 42.6986 27.6087 42.9189 27.6087C43.058 27.6087 43.1972 27.5971 43.3363 27.5739C43.487 27.5507 43.6319 27.5217 43.7711 27.4869V28.3391ZM45.297 28.3043V19.2956H46.3405V28.3043H45.297ZM45.2449 17.3304V15.7826H46.3927V17.3304H45.2449ZM55.3784 22.1304C55.1929 21.4579 54.8741 20.9362 54.4219 20.5652C53.9697 20.1826 53.3958 19.9913 52.7002 19.9913C52.1668 19.9913 51.7088 20.1014 51.3262 20.3217C50.9436 20.542 50.6306 20.8377 50.3871 21.2087C50.1436 21.5681 49.9639 21.9797 49.848 22.4435C49.732 22.8956 49.6741 23.3536 49.6741 23.8174C49.6741 24.2927 49.7262 24.7565 49.8306 25.2087C49.9465 25.6608 50.1262 26.0666 50.3697 26.4261C50.6132 26.7855 50.9262 27.0753 51.3088 27.2956C51.6915 27.5043 52.1552 27.6087 52.7002 27.6087C53.477 27.6087 54.0973 27.3942 54.561 26.9652C55.0364 26.5362 55.3378 25.9449 55.4654 25.1913H56.5784C56.4857 25.6898 56.3349 26.1478 56.1262 26.5652C55.9291 26.971 55.6683 27.3246 55.3436 27.6261C55.0306 27.9159 54.6538 28.142 54.2132 28.3043C53.7726 28.4666 53.2683 28.5478 52.7002 28.5478C51.9813 28.5478 51.361 28.4261 50.8393 28.1826C50.3175 27.9391 49.8886 27.6087 49.5523 27.1913C49.2161 26.7623 48.9668 26.2579 48.8045 25.6782C48.6422 25.0985 48.561 24.4782 48.561 23.8174C48.561 23.1913 48.648 22.5942 48.8219 22.0261C49.0074 21.4464 49.2741 20.9362 49.6219 20.4956C49.9697 20.055 50.3987 19.7072 50.9088 19.4521C51.4306 19.1855 52.0277 19.0521 52.7002 19.0521C53.7436 19.0521 54.5842 19.3014 55.2219 19.8C55.8712 20.2985 56.277 21.0753 56.4393 22.1304H55.3784ZM64.5552 23.5739C64.1146 23.7594 63.6682 23.8811 63.216 23.9391C62.7639 23.9971 62.3117 24.0435 61.8595 24.0782C61.0595 24.1362 60.4334 24.3159 59.9813 24.6174C59.5407 24.9188 59.3204 25.3768 59.3204 25.9913C59.3204 26.2695 59.3726 26.513 59.4769 26.7217C59.5929 26.9188 59.7378 27.0869 59.9117 27.2261C60.0972 27.3536 60.3059 27.4521 60.5378 27.5217C60.7813 27.5797 61.0247 27.6087 61.2682 27.6087C61.6856 27.6087 62.0914 27.5565 62.4856 27.4521C62.8798 27.3478 63.2276 27.1913 63.5291 26.9826C63.8421 26.7623 64.0914 26.4898 64.2769 26.1652C64.4624 25.829 64.5552 25.4348 64.5552 24.9826V23.5739ZM62.7987 23.0521C62.9958 23.029 63.2276 22.9942 63.4943 22.9478C63.7726 22.9014 63.9987 22.8377 64.1726 22.7565C64.3465 22.6753 64.4508 22.542 64.4856 22.3565C64.532 22.1594 64.5552 21.9797 64.5552 21.8174C64.5552 21.284 64.3813 20.8492 64.0334 20.513C63.6972 20.1652 63.1233 19.9913 62.3117 19.9913C61.9523 19.9913 61.6218 20.0261 61.3204 20.0956C61.0189 20.1536 60.7523 20.2637 60.5204 20.4261C60.3001 20.5768 60.1146 20.7855 59.9639 21.0521C59.8247 21.3072 59.732 21.6319 59.6856 22.0261H58.6247C58.6595 21.4927 58.7813 21.0406 58.99 20.6695C59.1987 20.2869 59.4653 19.9797 59.79 19.7478C60.1262 19.5043 60.5088 19.3304 60.9378 19.2261C61.3784 19.1101 61.8421 19.0521 62.3291 19.0521C62.7813 19.0521 63.2045 19.1043 63.5987 19.2087C64.0045 19.3014 64.3523 19.4579 64.6421 19.6782C64.9436 19.8869 65.1755 20.171 65.3378 20.5304C65.5117 20.8898 65.5987 21.3304 65.5987 21.8521V26.7565C65.5987 27.1623 65.6682 27.4232 65.8074 27.5391C65.9581 27.6435 66.2537 27.6145 66.6943 27.4521V28.2695C66.6131 28.2927 66.4914 28.3275 66.3291 28.3739C66.1784 28.4203 66.0276 28.4435 65.8769 28.4435C65.7146 28.4435 65.5581 28.4261 65.4074 28.3913C65.2334 28.3681 65.0943 28.3159 64.99 28.2348C64.8856 28.142 64.7987 28.0377 64.7291 27.9217C64.6711 27.7942 64.6305 27.6608 64.6074 27.5217C64.5842 27.371 64.5726 27.2145 64.5726 27.0521C64.132 27.5391 63.6276 27.9101 63.0595 28.1652C62.4914 28.4203 61.8769 28.5478 61.216 28.5478C60.8218 28.5478 60.4392 28.4956 60.0682 28.3913C59.7088 28.2869 59.39 28.1246 59.1117 27.9043C58.8334 27.684 58.6131 27.4174 58.4508 27.1043C58.2885 26.7797 58.2074 26.3971 58.2074 25.9565C58.2074 24.4261 59.2566 23.5217 61.3552 23.2435L62.7987 23.0521ZM68.4798 28.3043V15.7826H69.5232V28.3043H68.4798ZM77.1754 28.3043V15.7826H78.358V27.2956H85.0711V28.3043H77.1754ZM90.2652 28.5478C89.6855 28.5362 89.1406 28.4319 88.6305 28.2348C88.1319 28.0377 87.6913 27.742 87.3087 27.3478C86.9377 26.9536 86.642 26.4608 86.4218 25.8695C86.2015 25.2782 86.0913 24.5884 86.0913 23.8C86.0913 23.1391 86.1783 22.5246 86.3522 21.9565C86.5261 21.3768 86.787 20.8724 87.1348 20.4435C87.4826 20.0145 87.9174 19.6782 88.4391 19.4348C88.9609 19.1797 89.5696 19.0521 90.2652 19.0521C90.9725 19.0521 91.587 19.1797 92.1087 19.4348C92.6305 19.6782 93.0652 20.0145 93.4131 20.4435C93.7609 20.8608 94.016 21.3594 94.1783 21.9391C94.3522 22.5188 94.4391 23.1391 94.4391 23.8C94.4391 24.5188 94.3406 25.1681 94.1435 25.7478C93.9464 26.3275 93.6623 26.8261 93.2913 27.2435C92.9319 27.6608 92.4913 27.9855 91.9696 28.2174C91.4594 28.4377 90.8913 28.5478 90.2652 28.5478ZM93.3261 23.8C93.3261 23.2666 93.2681 22.7681 93.1522 22.3043C93.0362 21.8406 92.8565 21.4406 92.6131 21.1043C92.3696 20.7565 92.0565 20.484 91.6739 20.2869C91.2913 20.0898 90.8218 19.9913 90.2652 19.9913C89.7203 19.9913 89.2507 20.1014 88.8565 20.3217C88.4739 20.5304 88.1609 20.8145 87.9174 21.1739C87.6739 21.5217 87.4942 21.9275 87.3783 22.3913C87.2623 22.8435 87.2044 23.313 87.2044 23.8C87.2044 24.3565 87.2681 24.8724 87.3957 25.3478C87.5348 25.8116 87.7319 26.2116 87.987 26.5478C88.242 26.884 88.5609 27.1449 88.9435 27.3304C89.3261 27.5159 89.7667 27.6087 90.2652 27.6087C90.8102 27.6087 91.2739 27.5043 91.6565 27.2956C92.0507 27.0753 92.3696 26.7855 92.6131 26.4261C92.8565 26.0666 93.0362 25.6608 93.1522 25.2087C93.2681 24.7565 93.3261 24.2869 93.3261 23.8ZM103.303 23.8348C103.303 23.2898 103.233 22.7855 103.094 22.3217C102.967 21.8464 102.775 21.4406 102.52 21.1043C102.265 20.7565 101.946 20.484 101.564 20.2869C101.181 20.0898 100.746 19.9913 100.259 19.9913C99.8188 19.9913 99.413 20.0724 99.042 20.2348C98.671 20.3855 98.3464 20.6116 98.0681 20.913C97.7898 21.2145 97.5695 21.5855 97.4072 22.0261C97.2565 22.455 97.1811 22.9536 97.1811 23.5217C97.1579 24.0898 97.2043 24.6232 97.3203 25.1217C97.4362 25.6087 97.6217 26.0377 97.8768 26.4087C98.1319 26.7797 98.4565 27.0753 98.8507 27.2956C99.2449 27.5043 99.7145 27.6087 100.259 27.6087C100.735 27.6087 101.158 27.5101 101.529 27.313C101.912 27.1043 102.23 26.8319 102.485 26.4956C102.752 26.1478 102.955 25.7478 103.094 25.2956C103.233 24.8319 103.303 24.3449 103.303 23.8348ZM103.303 19.2956H104.346V27.4348C104.346 28.0377 104.283 28.6116 104.155 29.1565C104.039 29.713 103.825 30.2 103.512 30.6174C103.199 31.0348 102.77 31.3652 102.225 31.6087C101.68 31.8637 100.978 31.9913 100.12 31.9913C99.4594 31.9913 98.8913 31.9043 98.4159 31.7304C97.9406 31.5681 97.5521 31.3594 97.2507 31.1043C96.9492 30.8492 96.7174 30.5652 96.555 30.2521C96.4043 29.9507 96.3232 29.6666 96.3116 29.4H97.4246C97.5058 29.7362 97.6333 30.0087 97.8072 30.2174C97.9811 30.4377 98.184 30.6058 98.4159 30.7217C98.6594 30.8492 98.9261 30.9362 99.2159 30.9826C99.5058 31.029 99.8072 31.0521 100.12 31.0521C100.828 31.0521 101.396 30.9304 101.825 30.6869C102.254 30.4435 102.578 30.1246 102.799 29.7304C103.019 29.3362 103.158 28.8898 103.216 28.3913C103.285 27.8927 103.314 27.3826 103.303 26.8608C102.967 27.4174 102.503 27.8406 101.912 28.1304C101.332 28.4087 100.723 28.5478 100.085 28.5478C99.4014 28.5478 98.8043 28.4203 98.2942 28.1652C97.7956 27.8985 97.3782 27.5507 97.042 27.1217C96.7174 26.6811 96.4739 26.171 96.3116 25.5913C96.1492 25.0116 96.0681 24.4087 96.0681 23.7826C96.0681 23.1217 96.1435 22.5014 96.2942 21.9217C96.4449 21.342 96.6826 20.8435 97.0072 20.4261C97.3435 19.9971 97.7666 19.6608 98.2768 19.4174C98.7869 19.1739 99.4072 19.0521 100.138 19.0521C100.428 19.0521 100.723 19.0927 101.025 19.1739C101.326 19.255 101.616 19.371 101.894 19.5217C102.184 19.6724 102.445 19.8637 102.677 20.0956C102.92 20.3275 103.117 20.5884 103.268 20.8782H103.303V19.2956ZM110.561 28.5478C109.981 28.5362 109.436 28.4319 108.926 28.2348C108.427 28.0377 107.987 27.742 107.604 27.3478C107.233 26.9536 106.938 26.4608 106.717 25.8695C106.497 25.2782 106.387 24.5884 106.387 23.8C106.387 23.1391 106.474 22.5246 106.648 21.9565C106.822 21.3768 107.082 20.8724 107.43 20.4435C107.778 20.0145 108.213 19.6782 108.735 19.4348C109.256 19.1797 109.865 19.0521 110.561 19.0521C111.268 19.0521 111.882 19.1797 112.404 19.4348C112.926 19.6782 113.361 20.0145 113.709 20.4435C114.056 20.8608 114.311 21.3594 114.474 21.9391C114.648 22.5188 114.735 23.1391 114.735 23.8C114.735 24.5188 114.636 25.1681 114.439 25.7478C114.242 26.3275 113.958 26.8261 113.587 27.2435C113.227 27.6608 112.787 27.9855 112.265 28.2174C111.755 28.4377 111.187 28.5478 110.561 28.5478ZM113.622 23.8C113.622 23.2666 113.564 22.7681 113.448 22.3043C113.332 21.8406 113.152 21.4406 112.909 21.1043C112.665 20.7565 112.352 20.484 111.969 20.2869C111.587 20.0898 111.117 19.9913 110.561 19.9913C110.016 19.9913 109.546 20.1014 109.152 20.3217C108.769 20.5304 108.456 20.8145 108.213 21.1739C107.969 21.5217 107.79 21.9275 107.674 22.3913C107.558 22.8435 107.5 23.313 107.5 23.8C107.5 24.3565 107.564 24.8724 107.691 25.3478C107.83 25.8116 108.027 26.2116 108.282 26.5478C108.538 26.884 108.856 27.1449 109.239 27.3304C109.622 27.5159 110.062 27.6087 110.561 27.6087C111.106 27.6087 111.569 27.5043 111.952 27.2956C112.346 27.0753 112.665 26.7855 112.909 26.4261C113.152 26.0666 113.332 25.6608 113.448 25.2087C113.564 24.7565 113.622 24.2869 113.622 23.8Z" fill="#222222"/>
<circle cx="23.0345" cy="656.034" r="7.03448" fill="#DD3418"/>
<circle cx="41.4993" cy="656.034" r="7.03448" fill="#4B5563"/>
<circle cx="59.9661" cy="656.035" r="7.03448" fill="#222222"/>
<g clip-path="url(#clip2_45_13009)">
<rect width="519" height="680" transform="translate(761)" fill="#222222"/>
<rect width="519" height="342" transform="translate(761)" fill="#DD3418"/>
<path d="M963.264 170.988C963.264 206.623 988.209 231.571 1017.93 241.834C1019.46 242.407 1021.15 242.432 1022.7 241.906C1052.35 231.571 1077.3 213.754 1077.3 178.118L1077.1 167.425M1073.54 167.425C1073.54 167.425 958.281 167.682 963.264 110.408C964.601 109.072 982.755 117.535 984.646 117.535C998.9 117.535 1002.46 112.549 1014.86 101.716C1016.37 100.426 1018.29 99.7175 1020.28 99.7175C1022.27 99.7175 1024.19 100.426 1025.7 101.716C1038.17 112.621 1045.23 117.535 1059.48 117.535C1061.37 117.535 1075.96 109.072 1077.3 110.408C1078.63 111.745 1077.3 126.339 1077.3 128.229L1077.3 138.916" stroke="white" stroke-width="14.2541" stroke-linecap="square" stroke-linejoin="round"/>
<path d="M776.81 21.9564C776.856 22.5129 776.978 22.9883 777.175 23.3825C777.384 23.7651 777.644 24.0782 777.958 24.3216C778.282 24.5651 778.653 24.7448 779.071 24.8608C779.488 24.9651 779.934 25.0173 780.41 25.0173C780.966 25.0173 781.447 24.9477 781.853 24.8086C782.259 24.6695 782.589 24.484 782.844 24.2521C783.1 24.0086 783.285 23.7303 783.401 23.4173C783.529 23.1043 783.592 22.7738 783.592 22.426C783.592 21.939 783.482 21.5448 783.262 21.2434C783.042 20.9419 782.752 20.6985 782.392 20.5129C782.044 20.3158 781.639 20.1593 781.175 20.0434C780.723 19.9274 780.253 19.8173 779.766 19.7129C779.291 19.597 778.821 19.4637 778.358 19.3129C777.905 19.1622 777.5 18.9593 777.14 18.7043C776.792 18.4492 776.508 18.1245 776.288 17.7303C776.068 17.3245 775.958 16.8144 775.958 16.1999C775.958 15.7709 776.044 15.3535 776.218 14.9477C776.404 14.5419 776.671 14.1825 777.018 13.8695C777.378 13.5564 777.824 13.3072 778.358 13.1216C778.891 12.9361 779.505 12.8434 780.201 12.8434C780.908 12.8434 781.523 12.9419 782.044 13.139C782.578 13.3361 783.018 13.6086 783.366 13.9564C783.714 14.2927 783.975 14.6869 784.149 15.139C784.323 15.5912 784.41 16.0724 784.41 16.5825H783.279C783.279 16.1072 783.192 15.6956 783.018 15.3477C782.856 14.9999 782.63 14.7158 782.34 14.4956C782.05 14.2753 781.72 14.1129 781.349 14.0086C780.978 13.9043 780.595 13.8521 780.201 13.8521C779.598 13.8521 779.088 13.939 778.671 14.1129C778.265 14.2753 777.94 14.4898 777.697 14.7564C777.453 15.0231 777.285 15.3187 777.192 15.6434C777.1 15.968 777.082 16.2927 777.14 16.6173C777.21 17.0231 777.372 17.3477 777.627 17.5912C777.882 17.8347 778.195 18.0376 778.566 18.1999C778.937 18.3506 779.343 18.4782 779.784 18.5825C780.236 18.6753 780.694 18.7796 781.158 18.8956C781.621 18.9999 782.068 19.1274 782.497 19.2782C782.937 19.4289 783.326 19.6318 783.662 19.8869C783.998 20.1419 784.265 20.4724 784.462 20.8782C784.671 21.2724 784.775 21.7709 784.775 22.3738C784.775 23.5332 784.375 24.4318 783.575 25.0695C782.775 25.7072 781.65 26.026 780.201 26.026C779.552 26.026 778.949 25.939 778.392 25.7651C777.836 25.6028 777.355 25.3535 776.949 25.0173C776.543 24.6695 776.224 24.2463 775.992 23.7477C775.772 23.2376 775.662 22.6405 775.662 21.9564H776.81ZM786.728 28.1477C786.868 28.1709 787.007 28.1941 787.146 28.2173C787.297 28.2405 787.447 28.2521 787.598 28.2521C787.888 28.2521 788.126 28.1593 788.311 27.9738C788.497 27.7883 788.647 27.5622 788.763 27.2956C788.891 27.0405 788.995 26.768 789.076 26.4782C789.157 26.1999 789.25 25.9622 789.355 25.7651L785.859 16.6869H787.024L789.911 24.426L792.798 16.6869H793.928L790.572 25.5738C790.363 26.1419 790.16 26.6521 789.963 27.1043C789.778 27.5564 789.575 27.939 789.355 28.2521C789.146 28.5767 788.908 28.8202 788.642 28.9825C788.386 29.1564 788.079 29.2434 787.72 29.2434C787.534 29.2434 787.355 29.2318 787.181 29.2086C787.018 29.1854 786.868 29.1564 786.728 29.1216V28.1477ZM796.398 25.6956H795.355V16.6869H796.398V18.0434H796.433C796.699 17.5216 797.082 17.1274 797.581 16.8608C798.079 16.5825 798.624 16.4434 799.215 16.4434C799.633 16.4434 799.986 16.4898 800.276 16.5825C800.566 16.6753 800.81 16.8028 801.007 16.9651C801.215 17.1158 801.384 17.2956 801.511 17.5043C801.65 17.7129 801.766 17.939 801.859 18.1825C802.16 17.5912 802.56 17.1564 803.059 16.8782C803.569 16.5883 804.149 16.4434 804.798 16.4434C805.413 16.4434 805.899 16.5477 806.259 16.7564C806.63 16.9535 806.914 17.2202 807.111 17.5564C807.308 17.8811 807.436 18.2579 807.494 18.6869C807.563 19.1158 807.598 19.5564 807.598 20.0086V25.6956H806.555V19.4695C806.555 18.8202 806.415 18.31 806.137 17.939C805.87 17.568 805.366 17.3825 804.624 17.3825C804.242 17.3825 803.87 17.4695 803.511 17.6434C803.163 17.8057 802.856 18.0608 802.589 18.4086C802.473 18.5593 802.375 18.739 802.294 18.9477C802.224 19.1448 802.166 19.3535 802.12 19.5738C802.073 19.7941 802.039 20.0144 802.015 20.2347C802.004 20.455 801.998 20.6579 801.998 20.8434V25.6956H800.955V19.4695C800.955 18.8202 800.815 18.31 800.537 17.939C800.27 17.568 799.766 17.3825 799.024 17.3825C798.642 17.3825 798.27 17.4695 797.911 17.6434C797.563 17.8057 797.256 18.0608 796.989 18.4086C796.873 18.5593 796.775 18.739 796.694 18.9477C796.624 19.1448 796.566 19.3535 796.52 19.5738C796.473 19.7941 796.439 20.0144 796.415 20.2347C796.404 20.455 796.398 20.6579 796.398 20.8434V25.6956ZM811.146 21.1564C811.146 21.7014 811.21 22.2115 811.337 22.6869C811.476 23.1506 811.674 23.5564 811.929 23.9043C812.184 24.2405 812.503 24.5072 812.885 24.7043C813.268 24.9014 813.703 24.9999 814.189 24.9999C814.63 24.9999 815.036 24.9245 815.407 24.7738C815.778 24.6115 816.103 24.3796 816.381 24.0782C816.659 23.7767 816.874 23.4115 817.024 22.9825C817.187 22.5419 817.268 22.0376 817.268 21.4695C817.291 20.9014 817.245 20.3738 817.129 19.8869C817.013 19.3883 816.827 18.9535 816.572 18.5825C816.317 18.2115 815.987 17.9216 815.581 17.7129C815.187 17.4927 814.723 17.3825 814.189 17.3825C813.714 17.3825 813.285 17.4869 812.903 17.6956C812.531 17.8927 812.213 18.1651 811.946 18.5129C811.691 18.8492 811.494 19.2492 811.355 19.7129C811.216 20.1651 811.146 20.6463 811.146 21.1564ZM811.146 25.6956H810.103V13.1738H811.146V18.1303C811.482 17.5738 811.94 17.1564 812.52 16.8782C813.111 16.5883 813.726 16.4434 814.363 16.4434C815.047 16.4434 815.639 16.5767 816.137 16.8434C816.647 17.0985 817.065 17.4463 817.389 17.8869C817.726 18.3158 817.975 18.8202 818.137 19.3999C818.3 19.9796 818.381 20.5825 818.381 21.2086C818.381 21.8695 818.305 22.4898 818.155 23.0695C818.004 23.6492 817.76 24.1535 817.424 24.5825C817.1 24.9999 816.682 25.3303 816.172 25.5738C815.662 25.8173 815.042 25.939 814.311 25.939C814.021 25.939 813.726 25.8985 813.424 25.8173C813.123 25.7361 812.827 25.6202 812.537 25.4695C812.259 25.3187 811.998 25.1332 811.755 24.9129C811.523 24.6811 811.331 24.4144 811.181 24.1129H811.146V25.6956ZM824.195 25.939C823.615 25.9274 823.071 25.8231 822.56 25.626C822.062 25.4289 821.621 25.1332 821.239 24.739C820.868 24.3448 820.572 23.8521 820.352 23.2608C820.131 22.6695 820.021 21.9796 820.021 21.1912C820.021 20.5303 820.108 19.9158 820.282 19.3477C820.456 18.768 820.717 18.2637 821.065 17.8347C821.413 17.4057 821.847 17.0695 822.369 16.826C822.891 16.5709 823.5 16.4434 824.195 16.4434C824.902 16.4434 825.517 16.5709 826.039 16.826C826.56 17.0695 826.995 17.4057 827.343 17.8347C827.691 18.2521 827.946 18.7506 828.108 19.3303C828.282 19.91 828.369 20.5303 828.369 21.1912C828.369 21.91 828.271 22.5593 828.073 23.139C827.876 23.7187 827.592 24.2173 827.221 24.6347C826.862 25.0521 826.421 25.3767 825.9 25.6086C825.389 25.8289 824.821 25.939 824.195 25.939ZM827.256 21.1912C827.256 20.6579 827.198 20.1593 827.082 19.6956C826.966 19.2318 826.786 18.8318 826.543 18.4956C826.3 18.1477 825.986 17.8753 825.604 17.6782C825.221 17.4811 824.752 17.3825 824.195 17.3825C823.65 17.3825 823.181 17.4927 822.786 17.7129C822.404 17.9216 822.091 18.2057 821.847 18.5651C821.604 18.9129 821.424 19.3187 821.308 19.7825C821.192 20.2347 821.134 20.7043 821.134 21.1912C821.134 21.7477 821.198 22.2637 821.326 22.739C821.465 23.2028 821.662 23.6028 821.917 23.939C822.172 24.2753 822.491 24.5361 822.873 24.7216C823.256 24.9072 823.697 24.9999 824.195 24.9999C824.74 24.9999 825.204 24.8956 825.586 24.6869C825.981 24.4666 826.3 24.1767 826.543 23.8173C826.786 23.4579 826.966 23.0521 827.082 22.5999C827.198 22.1477 827.256 21.6782 827.256 21.1912ZM830.433 25.6956V13.1738H831.476V25.6956H830.433Z" fill="white"/>
<rect width="519" height="338" transform="translate(761 342)" fill="#222222"/>
<path d="M875.341 510.995C875.341 525.95 885.81 536.42 898.282 540.727C898.927 540.967 899.634 540.978 900.286 540.757C912.729 536.42 923.197 528.942 923.197 513.987L923.116 509.499M921.62 509.499C921.62 509.499 873.25 509.607 875.341 485.571C875.902 485.011 883.521 488.562 884.314 488.562C890.296 488.562 891.792 486.47 896.996 481.924C897.63 481.382 898.436 481.085 899.269 481.085C900.102 481.085 900.909 481.382 901.542 481.924C906.776 486.5 909.738 488.562 915.72 488.562C916.513 488.562 922.636 485.011 923.197 485.571C923.758 486.132 923.197 492.257 923.197 493.05L923.197 497.535" stroke="#DD3418" stroke-width="5.982" stroke-linecap="square" stroke-linejoin="round"/>
<path d="M962.317 487.772C963.28 487.772 964.572 487.816 966.192 487.903C967.813 487.991 969.498 488.122 971.25 488.297C973.002 488.429 974.534 488.582 975.848 488.757C977.162 488.889 978.016 489.042 978.41 489.217L977.096 499.135H976.439C976.439 496.727 975.498 494.778 973.615 493.289C971.776 491.801 969.236 491.056 965.995 491.056C963.324 491.056 961.2 491.582 959.624 492.633C958.048 493.64 957.194 494.953 957.062 496.574C956.931 498.15 957.456 499.376 958.639 500.252C959.865 501.128 961.288 501.938 962.908 502.682L975.191 508.397C977.643 509.491 979.57 511.09 980.971 513.192C982.373 515.294 982.964 517.943 982.745 521.139C982.438 525.825 980.468 529.416 976.833 531.912C973.242 534.364 968.338 535.59 962.12 535.59C959.58 535.59 957.281 535.393 955.223 534.999C953.165 534.605 951.392 534.101 949.903 533.488C948.458 532.831 947.341 532.109 946.553 531.321C946.071 530.226 945.874 528.89 945.962 527.314C946.049 525.737 946.334 524.183 946.816 522.65C947.341 521.074 947.954 519.826 948.655 518.906H949.246C949.114 521.183 949.596 523.351 950.691 525.409C951.786 527.467 953.428 529.131 955.617 530.401C957.807 531.671 960.434 532.306 963.499 532.306C966.652 532.306 968.973 531.649 970.462 530.335C971.994 529.022 972.761 527.533 972.761 525.869C972.761 524.467 972.213 523.198 971.119 522.059C970.068 520.921 968.294 519.782 965.798 518.643L955.092 513.651C952.07 512.25 949.859 510.323 948.458 507.871C947.1 505.419 946.618 502.638 947.013 499.529C947.319 496.99 948.129 494.844 949.443 493.092C950.757 491.341 952.486 490.027 954.632 489.151C956.821 488.232 959.383 487.772 962.317 487.772ZM978.541 488.429L978.344 489.808H968.82V488.429H978.541ZM1004.29 492.895L1024.65 534.342H1009.74L998.64 508.988L1004.29 492.895ZM992.138 530.664C991.656 531.758 991.722 532.59 992.335 533.16C992.948 533.729 993.626 534.014 994.371 534.014H994.831V534.67H981.3V534.014C981.3 534.014 981.387 534.014 981.562 534.014C981.738 534.014 981.825 534.014 981.825 534.014C982.701 534.014 983.621 533.773 984.584 533.291C985.547 532.766 986.314 531.89 986.883 530.664H992.138ZM1004.29 492.895L1004.22 502.945L990.43 534.473H985.109L1000.35 501.631C1000.52 501.193 1000.79 500.602 1001.14 499.858C1001.49 499.07 1001.84 498.238 1002.19 497.362C1002.58 496.442 1002.93 495.588 1003.24 494.8C1003.54 494.012 1003.72 493.377 1003.76 492.895H1004.29ZM1008.69 523.373V526.329H992.335V523.373H1008.69ZM1008.1 530.664H1022.81C1023.43 531.89 1024.21 532.766 1025.18 533.291C1026.14 533.773 1027.06 534.014 1027.94 534.014C1027.94 534.014 1028.02 534.014 1028.2 534.014C1028.37 534.014 1028.46 534.014 1028.46 534.014V534.67H1005.34V534.014H1005.87C1006.61 534.014 1007.29 533.729 1007.9 533.16C1008.51 532.59 1008.58 531.758 1008.1 530.664ZM1043.95 495.26V534.67H1031.08V495.26H1043.95ZM1056.17 513.717V516.804H1043.82V513.717H1056.17ZM1059.06 495.26V498.281H1043.82V495.26H1059.06ZM1056.17 516.673V523.767H1055.51V523.504C1055.51 521.577 1054.9 520.001 1053.67 518.775C1052.49 517.505 1050.91 516.848 1048.94 516.804V516.673H1056.17ZM1056.17 506.82V513.849H1048.94V513.717C1050.91 513.673 1052.49 513.017 1053.67 511.747C1054.9 510.477 1055.51 508.878 1055.51 506.952V506.82H1056.17ZM1059.06 498.084V506.82H1058.4V506.426C1058.4 503.886 1057.72 501.916 1056.37 500.515C1055.05 499.07 1053.13 498.325 1050.59 498.281V498.084H1059.06ZM1059.06 494.275V495.851L1052.56 495.26C1053.34 495.26 1054.18 495.216 1055.05 495.129C1055.93 494.997 1056.74 494.866 1057.48 494.734C1058.23 494.559 1058.75 494.406 1059.06 494.275ZM1031.27 530.598L1031.21 534.67H1026.94V534.014C1026.94 534.014 1027.05 534.014 1027.27 534.014C1027.49 534.014 1027.62 534.014 1027.66 534.014C1028.58 534.014 1029.37 533.685 1030.03 533.028C1030.73 532.371 1031.08 531.561 1031.08 530.598H1031.27ZM1031.27 499.398H1031.08C1031.08 498.391 1030.73 497.559 1030.03 496.902C1029.37 496.245 1028.58 495.917 1027.66 495.917C1027.62 495.917 1027.49 495.917 1027.27 495.917C1027.05 495.917 1026.94 495.917 1026.94 495.917V495.26H1031.21L1031.27 499.398ZM1043.82 530.598H1043.95C1044 531.561 1044.35 532.371 1045 533.028C1045.66 533.685 1046.47 534.014 1047.43 534.014C1047.43 534.014 1047.54 534.014 1047.76 534.014C1047.98 534.014 1048.11 534.014 1048.16 534.014L1048.09 534.67H1043.89L1043.82 530.598ZM1079.55 495.26V534.67H1066.68V495.26H1079.55ZM1093.41 531.649L1096.04 534.67H1079.42V531.649H1093.41ZM1091.77 513.717V516.804H1079.42V513.717H1091.77ZM1094.66 495.26V498.281H1079.42V495.26H1094.66ZM1098.01 520.877L1096.17 534.67H1083.95L1085.86 531.649C1087.57 531.649 1089.19 531.233 1090.72 530.401C1092.29 529.525 1093.67 528.299 1094.86 526.723C1096.04 525.102 1096.89 523.154 1097.42 520.877H1098.01ZM1091.77 516.673V523.767H1091.11V523.504C1091.11 521.577 1090.5 520.001 1089.27 518.775C1088.09 517.505 1086.54 516.848 1084.61 516.804V516.673H1091.77ZM1091.77 506.82V513.849H1084.61V513.717C1086.54 513.673 1088.09 513.017 1089.27 511.747C1090.5 510.477 1091.11 508.878 1091.11 506.952V506.82H1091.77ZM1094.66 498.15V506.689H1094V506.361C1094 503.821 1093.35 501.85 1092.03 500.449C1090.72 499.048 1088.81 498.325 1086.32 498.281V498.15H1094.66ZM1094.66 494.275V495.851L1088.16 495.26C1089.34 495.26 1090.59 495.15 1091.9 494.931C1093.26 494.669 1094.18 494.45 1094.66 494.275ZM1066.87 530.598L1066.81 534.67H1062.54V534.014C1062.54 534.014 1062.65 534.014 1062.87 534.014C1063.09 534.014 1063.22 534.014 1063.26 534.014C1064.18 534.014 1064.97 533.685 1065.63 533.028C1066.33 532.371 1066.68 531.561 1066.68 530.598H1066.87ZM1066.87 499.398H1066.68C1066.68 498.391 1066.33 497.559 1065.63 496.902C1064.97 496.245 1064.18 495.917 1063.26 495.917C1063.22 495.917 1063.09 495.917 1062.87 495.917C1062.65 495.917 1062.54 495.917 1062.54 495.917V495.26H1066.81L1066.87 499.398ZM1119.89 535.459L1099.8 495.588H1114.84L1125.48 519.366L1119.89 535.459ZM1119.89 535.459L1119.76 525.803L1133.49 495.457H1138.75L1123.84 526.657C1123.66 527.051 1123.4 527.642 1123.05 528.43C1122.7 529.175 1122.33 530.007 1121.93 530.926C1121.58 531.802 1121.25 532.656 1120.95 533.488C1120.68 534.276 1120.51 534.933 1120.42 535.459H1119.89ZM1131.72 499.332C1132.2 498.194 1132.13 497.34 1131.52 496.771C1130.95 496.158 1130.29 495.851 1129.55 495.851H1129.03V495.26H1142.49V495.917C1142.49 495.917 1142.4 495.917 1142.23 495.917C1142.05 495.917 1141.96 495.917 1141.96 495.917C1141.13 495.917 1140.24 496.179 1139.27 496.705C1138.31 497.187 1137.52 498.062 1136.91 499.332H1131.72ZM1116.48 499.332H1101.7C1101.09 498.062 1100.3 497.187 1099.34 496.705C1098.42 496.179 1097.52 495.917 1096.64 495.917C1096.64 495.917 1096.58 495.917 1096.45 495.917C1096.27 495.917 1096.18 495.917 1096.18 495.917V495.26H1119.24V495.851H1118.71C1118.01 495.851 1117.36 496.158 1116.74 496.771C1116.13 497.34 1116.04 498.194 1116.48 499.332ZM1158.71 495.26V534.67H1145.83V495.26H1158.71ZM1172.57 531.649L1175.19 534.67H1158.58V531.649H1172.57ZM1170.92 513.717V516.804H1158.58V513.717H1170.92ZM1173.81 495.26V498.281H1158.58V495.26H1173.81ZM1177.16 520.877L1175.32 534.67H1163.11L1165.01 531.649C1166.72 531.649 1168.34 531.233 1169.87 530.401C1171.45 529.525 1172.83 528.299 1174.01 526.723C1175.19 525.102 1176.05 523.154 1176.57 520.877H1177.16ZM1170.92 516.673V523.767H1170.27V523.504C1170.27 521.577 1169.65 520.001 1168.43 518.775C1167.25 517.505 1165.69 516.848 1163.76 516.804V516.673H1170.92ZM1170.92 506.82V513.849H1163.76V513.717C1165.69 513.673 1167.25 513.017 1168.43 511.747C1169.65 510.477 1170.27 508.878 1170.27 506.952V506.82H1170.92ZM1173.81 498.15V506.689H1173.16V506.361C1173.16 503.821 1172.5 501.85 1171.19 500.449C1169.87 499.048 1167.97 498.325 1165.47 498.281V498.15H1173.81ZM1173.81 494.275V495.851L1167.31 495.26C1168.49 495.26 1169.74 495.15 1171.06 494.931C1172.41 494.669 1173.33 494.45 1173.81 494.275ZM1146.03 530.598L1145.96 534.67H1141.69V534.014C1141.69 534.014 1141.8 534.014 1142.02 534.014C1142.24 534.014 1142.37 534.014 1142.42 534.014C1143.34 534.014 1144.12 533.685 1144.78 533.028C1145.48 532.371 1145.83 531.561 1145.83 530.598H1146.03ZM1146.03 499.398H1145.83C1145.83 498.391 1145.48 497.559 1144.78 496.902C1144.12 496.245 1143.34 495.917 1142.42 495.917C1142.37 495.917 1142.24 495.917 1142.02 495.917C1141.8 495.917 1141.69 495.917 1141.69 495.917V495.26H1145.96L1146.03 499.398Z" fill="white"/>
<path d="M776.305 370.304V357.783H777.488V363.157H784.897V357.783H786.079V370.304H784.897V364.165H777.488V370.304H776.305ZM792.3 370.548C791.72 370.536 791.175 370.432 790.665 370.235C790.166 370.038 789.726 369.742 789.343 369.348C788.972 368.954 788.677 368.461 788.456 367.87C788.236 367.278 788.126 366.589 788.126 365.8C788.126 365.139 788.213 364.525 788.387 363.957C788.561 363.377 788.822 362.873 789.169 362.444C789.517 362.015 789.952 361.678 790.474 361.435C790.995 361.18 791.604 361.052 792.3 361.052C793.007 361.052 793.622 361.18 794.143 361.435C794.665 361.678 795.1 362.015 795.448 362.444C795.795 362.861 796.051 363.36 796.213 363.939C796.387 364.519 796.474 365.139 796.474 365.8C796.474 366.519 796.375 367.168 796.178 367.748C795.981 368.328 795.697 368.826 795.326 369.244C794.966 369.661 794.526 369.986 794.004 370.217C793.494 370.438 792.926 370.548 792.3 370.548ZM795.361 365.8C795.361 365.267 795.303 364.768 795.187 364.304C795.071 363.841 794.891 363.441 794.648 363.104C794.404 362.757 794.091 362.484 793.708 362.287C793.326 362.09 792.856 361.991 792.3 361.991C791.755 361.991 791.285 362.102 790.891 362.322C790.508 362.531 790.195 362.815 789.952 363.174C789.708 363.522 789.529 363.928 789.413 364.391C789.297 364.844 789.239 365.313 789.239 365.8C789.239 366.357 789.303 366.873 789.43 367.348C789.569 367.812 789.766 368.212 790.022 368.548C790.277 368.884 790.595 369.145 790.978 369.331C791.361 369.516 791.801 369.609 792.3 369.609C792.845 369.609 793.308 369.504 793.691 369.296C794.085 369.075 794.404 368.786 794.648 368.426C794.891 368.067 795.071 367.661 795.187 367.209C795.303 366.757 795.361 366.287 795.361 365.8ZM799.477 370.304H798.433V361.296H799.477V362.983H799.511C799.801 362.264 800.172 361.765 800.624 361.487C801.088 361.197 801.697 361.052 802.45 361.052V362.183C801.859 362.171 801.372 362.264 800.99 362.461C800.607 362.658 800.3 362.925 800.068 363.261C799.848 363.597 799.691 363.997 799.598 364.461C799.517 364.913 799.477 365.389 799.477 365.887V370.304ZM804.023 370.304V361.296H805.067V370.304H804.023ZM803.971 359.331V357.783H805.119V359.331H803.971ZM807.044 370.304V369.383L813.026 362.165H807.444V361.296H814.365V362.217L808.383 369.435H814.592V370.304H807.044ZM820 370.548C819.42 370.536 818.876 370.432 818.365 370.235C817.867 370.038 817.426 369.742 817.044 369.348C816.673 368.954 816.377 368.461 816.157 367.87C815.936 367.278 815.826 366.589 815.826 365.8C815.826 365.139 815.913 364.525 816.087 363.957C816.261 363.377 816.522 362.873 816.87 362.444C817.218 362.015 817.652 361.678 818.174 361.435C818.696 361.18 819.305 361.052 820 361.052C820.707 361.052 821.322 361.18 821.844 361.435C822.365 361.678 822.8 362.015 823.148 362.444C823.496 362.861 823.751 363.36 823.913 363.939C824.087 364.519 824.174 365.139 824.174 365.8C824.174 366.519 824.076 367.168 823.878 367.748C823.681 368.328 823.397 368.826 823.026 369.244C822.667 369.661 822.226 369.986 821.705 370.217C821.194 370.438 820.626 370.548 820 370.548ZM823.061 365.8C823.061 365.267 823.003 364.768 822.887 364.304C822.771 363.841 822.592 363.441 822.348 363.104C822.105 362.757 821.792 362.484 821.409 362.287C821.026 362.09 820.557 361.991 820 361.991C819.455 361.991 818.986 362.102 818.592 362.322C818.209 362.531 817.896 362.815 817.652 363.174C817.409 363.522 817.229 363.928 817.113 364.391C816.997 364.844 816.939 365.313 816.939 365.8C816.939 366.357 817.003 366.873 817.131 367.348C817.27 367.812 817.467 368.212 817.722 368.548C817.977 368.884 818.296 369.145 818.678 369.331C819.061 369.516 819.502 369.609 820 369.609C820.545 369.609 821.009 369.504 821.392 369.296C821.786 369.075 822.105 368.786 822.348 368.426C822.592 368.067 822.771 367.661 822.887 367.209C823.003 366.757 823.061 366.287 823.061 365.8ZM827.125 370.304H826.081V361.296H827.125V362.548C827.542 362.107 827.971 361.748 828.412 361.47C828.864 361.191 829.403 361.052 830.029 361.052C830.586 361.052 831.102 361.151 831.577 361.348C832.052 361.533 832.452 361.864 832.777 362.339C832.997 362.664 833.125 363 833.16 363.348C833.206 363.684 833.229 364.038 833.229 364.409V370.304H832.186V364.426C832.186 363.615 832.006 363.006 831.647 362.6C831.287 362.194 830.69 361.991 829.855 361.991C829.531 361.991 829.235 362.044 828.968 362.148C828.702 362.241 828.458 362.368 828.238 362.531C828.029 362.693 827.849 362.878 827.699 363.087C827.548 363.296 827.432 363.516 827.351 363.748C827.247 364.038 827.183 364.316 827.16 364.583C827.136 364.849 827.125 365.139 827.125 365.452V370.304ZM838.91 370.339C838.783 370.362 838.615 370.403 838.406 370.461C838.197 370.519 837.965 370.548 837.71 370.548C837.189 370.548 836.789 370.42 836.51 370.165C836.244 369.899 836.11 369.429 836.11 368.757V362.165H834.841V361.296H836.11V358.791H837.154V361.296H838.841V362.165H837.154V368.339C837.154 368.56 837.16 368.751 837.171 368.913C837.183 369.075 837.218 369.209 837.275 369.313C837.333 369.417 837.42 369.493 837.536 369.539C837.664 369.586 837.838 369.609 838.058 369.609C838.197 369.609 838.336 369.597 838.475 369.574C838.626 369.551 838.771 369.522 838.91 369.487V370.339ZM846.481 365.574C846.04 365.76 845.594 365.881 845.142 365.939C844.69 365.997 844.238 366.044 843.785 366.078C842.985 366.136 842.359 366.316 841.907 366.617C841.467 366.919 841.246 367.377 841.246 367.991C841.246 368.27 841.298 368.513 841.403 368.722C841.519 368.919 841.664 369.087 841.838 369.226C842.023 369.354 842.232 369.452 842.464 369.522C842.707 369.58 842.951 369.609 843.194 369.609C843.611 369.609 844.017 369.557 844.411 369.452C844.806 369.348 845.154 369.191 845.455 368.983C845.768 368.762 846.017 368.49 846.203 368.165C846.388 367.829 846.481 367.435 846.481 366.983V365.574ZM844.725 365.052C844.922 365.029 845.154 364.994 845.42 364.948C845.698 364.902 845.925 364.838 846.098 364.757C846.272 364.675 846.377 364.542 846.411 364.357C846.458 364.16 846.481 363.98 846.481 363.817C846.481 363.284 846.307 362.849 845.959 362.513C845.623 362.165 845.049 361.991 844.238 361.991C843.878 361.991 843.548 362.026 843.246 362.096C842.945 362.154 842.678 362.264 842.446 362.426C842.226 362.577 842.04 362.786 841.89 363.052C841.751 363.307 841.658 363.632 841.611 364.026H840.551C840.585 363.493 840.707 363.041 840.916 362.67C841.125 362.287 841.391 361.98 841.716 361.748C842.052 361.504 842.435 361.331 842.864 361.226C843.304 361.11 843.768 361.052 844.255 361.052C844.707 361.052 845.13 361.104 845.525 361.209C845.93 361.302 846.278 361.458 846.568 361.678C846.869 361.887 847.101 362.171 847.264 362.531C847.438 362.89 847.525 363.331 847.525 363.852V368.757C847.525 369.162 847.594 369.423 847.733 369.539C847.884 369.644 848.18 369.615 848.62 369.452V370.27C848.539 370.293 848.417 370.328 848.255 370.374C848.104 370.42 847.954 370.444 847.803 370.444C847.64 370.444 847.484 370.426 847.333 370.391C847.159 370.368 847.02 370.316 846.916 370.235C846.811 370.142 846.725 370.038 846.655 369.922C846.597 369.794 846.556 369.661 846.533 369.522C846.51 369.371 846.498 369.215 846.498 369.052C846.058 369.539 845.554 369.91 844.985 370.165C844.417 370.42 843.803 370.548 843.142 370.548C842.748 370.548 842.365 370.496 841.994 370.391C841.635 370.287 841.316 370.125 841.038 369.904C840.759 369.684 840.539 369.417 840.377 369.104C840.214 368.78 840.133 368.397 840.133 367.957C840.133 366.426 841.182 365.522 843.281 365.244L844.725 365.052ZM850.406 370.304V357.783H851.449V370.304H850.406ZM859.101 370.304V357.783H860.284V369.296H866.997V370.304H859.101ZM872.191 370.548C871.611 370.536 871.066 370.432 870.556 370.235C870.058 370.038 869.617 369.742 869.235 369.348C868.864 368.954 868.568 368.461 868.348 367.87C868.127 367.278 868.017 366.589 868.017 365.8C868.017 365.139 868.104 364.525 868.278 363.957C868.452 363.377 868.713 362.873 869.061 362.444C869.408 362.015 869.843 361.678 870.365 361.435C870.887 361.18 871.495 361.052 872.191 361.052C872.898 361.052 873.513 361.18 874.035 361.435C874.556 361.678 874.991 362.015 875.339 362.444C875.687 362.861 875.942 363.36 876.104 363.939C876.278 364.519 876.365 365.139 876.365 365.8C876.365 366.519 876.266 367.168 876.069 367.748C875.872 368.328 875.588 368.826 875.217 369.244C874.858 369.661 874.417 369.986 873.895 370.217C873.385 370.438 872.817 370.548 872.191 370.548ZM875.252 365.8C875.252 365.267 875.194 364.768 875.078 364.304C874.962 363.841 874.782 363.441 874.539 363.104C874.295 362.757 873.982 362.484 873.6 362.287C873.217 362.09 872.748 361.991 872.191 361.991C871.646 361.991 871.177 362.102 870.782 362.322C870.4 362.531 870.087 362.815 869.843 363.174C869.6 363.522 869.42 363.928 869.304 364.391C869.188 364.844 869.13 365.313 869.13 365.8C869.13 366.357 869.194 366.873 869.322 367.348C869.461 367.812 869.658 368.212 869.913 368.548C870.168 368.884 870.487 369.145 870.869 369.331C871.252 369.516 871.693 369.609 872.191 369.609C872.736 369.609 873.2 369.504 873.582 369.296C873.977 369.075 874.295 368.786 874.539 368.426C874.782 368.067 874.962 367.661 875.078 367.209C875.194 366.757 875.252 366.287 875.252 365.8ZM885.229 365.835C885.229 365.29 885.159 364.786 885.02 364.322C884.893 363.846 884.701 363.441 884.446 363.104C884.191 362.757 883.872 362.484 883.49 362.287C883.107 362.09 882.672 361.991 882.185 361.991C881.745 361.991 881.339 362.073 880.968 362.235C880.597 362.386 880.272 362.612 879.994 362.913C879.716 363.215 879.495 363.586 879.333 364.026C879.182 364.455 879.107 364.954 879.107 365.522C879.084 366.09 879.13 366.623 879.246 367.122C879.362 367.609 879.548 368.038 879.803 368.409C880.058 368.78 880.382 369.075 880.777 369.296C881.171 369.504 881.64 369.609 882.185 369.609C882.661 369.609 883.084 369.51 883.455 369.313C883.837 369.104 884.156 368.832 884.411 368.496C884.678 368.148 884.881 367.748 885.02 367.296C885.159 366.832 885.229 366.345 885.229 365.835ZM885.229 361.296H886.272V369.435C886.272 370.038 886.208 370.612 886.081 371.157C885.965 371.713 885.75 372.2 885.437 372.617C885.124 373.035 884.695 373.365 884.15 373.609C883.606 373.864 882.904 373.991 882.046 373.991C881.385 373.991 880.817 373.904 880.342 373.731C879.866 373.568 879.478 373.36 879.177 373.104C878.875 372.849 878.643 372.565 878.481 372.252C878.33 371.951 878.249 371.667 878.237 371.4H879.35C879.432 371.736 879.559 372.009 879.733 372.217C879.907 372.438 880.11 372.606 880.342 372.722C880.585 372.849 880.852 372.936 881.142 372.983C881.432 373.029 881.733 373.052 882.046 373.052C882.753 373.052 883.321 372.931 883.75 372.687C884.179 372.444 884.504 372.125 884.724 371.731C884.945 371.336 885.084 370.89 885.142 370.391C885.211 369.893 885.24 369.383 885.229 368.861C884.893 369.417 884.429 369.841 883.837 370.131C883.258 370.409 882.649 370.548 882.011 370.548C881.327 370.548 880.73 370.42 880.22 370.165C879.721 369.899 879.304 369.551 878.968 369.122C878.643 368.681 878.4 368.171 878.237 367.591C878.075 367.012 877.994 366.409 877.994 365.783C877.994 365.122 878.069 364.502 878.22 363.922C878.371 363.342 878.608 362.844 878.933 362.426C879.269 361.997 879.693 361.661 880.203 361.417C880.713 361.174 881.333 361.052 882.064 361.052C882.353 361.052 882.649 361.093 882.95 361.174C883.252 361.255 883.542 361.371 883.82 361.522C884.11 361.673 884.371 361.864 884.603 362.096C884.846 362.328 885.043 362.589 885.194 362.878H885.229V361.296ZM892.487 370.548C891.907 370.536 891.362 370.432 890.852 370.235C890.353 370.038 889.913 369.742 889.53 369.348C889.159 368.954 888.863 368.461 888.643 367.87C888.423 367.278 888.313 366.589 888.313 365.8C888.313 365.139 888.4 364.525 888.574 363.957C888.747 363.377 889.008 362.873 889.356 362.444C889.704 362.015 890.139 361.678 890.661 361.435C891.182 361.18 891.791 361.052 892.487 361.052C893.194 361.052 893.808 361.18 894.33 361.435C894.852 361.678 895.287 362.015 895.634 362.444C895.982 362.861 896.237 363.36 896.4 363.939C896.574 364.519 896.661 365.139 896.661 365.8C896.661 366.519 896.562 367.168 896.365 367.748C896.168 368.328 895.884 368.826 895.513 369.244C895.153 369.661 894.713 369.986 894.191 370.217C893.681 370.438 893.113 370.548 892.487 370.548ZM895.547 365.8C895.547 365.267 895.49 364.768 895.374 364.304C895.258 363.841 895.078 363.441 894.834 363.104C894.591 362.757 894.278 362.484 893.895 362.287C893.513 362.09 893.043 361.991 892.487 361.991C891.942 361.991 891.472 362.102 891.078 362.322C890.695 362.531 890.382 362.815 890.139 363.174C889.895 363.522 889.716 363.928 889.6 364.391C889.484 364.844 889.426 365.313 889.426 365.8C889.426 366.357 889.49 366.873 889.617 367.348C889.756 367.812 889.953 368.212 890.208 368.548C890.463 368.884 890.782 369.145 891.165 369.331C891.547 369.516 891.988 369.609 892.487 369.609C893.032 369.609 893.495 369.504 893.878 369.296C894.272 369.075 894.591 368.786 894.834 368.426C895.078 368.067 895.258 367.661 895.374 367.209C895.49 366.757 895.547 366.287 895.547 365.8Z" fill="white"/>
</g>
</g>
<defs>
<clipPath id="clip0_45_13009">
<rect width="1280" height="680" rx="20" fill="white"/>
</clipPath>
<clipPath id="clip1_45_13009">
<rect width="302.001" height="180.197" fill="white" transform="translate(228 249.901)"/>
</clipPath>
<clipPath id="clip2_45_13009">
<rect width="519" height="680" fill="white" transform="translate(761)"/>
</clipPath>
</defs>
</svg>
