<svg width="122" height="121" viewBox="0 0 122 121" fill="none" xmlns="http://www.w3.org/2000/svg">
<rect x="0.916016" y="24.1011" width="99" height="99" rx="10" transform="rotate(-14.09 0.916016 24.1011)" fill="white"/>
<path d="M45.4116 74.8847C45.3374 74.9038 45.2469 74.8974 45.1399 74.8656C45.0329 74.8339 44.937 74.7301 44.8523 74.5542L35.9264 58.0556C35.6632 57.5699 35.422 57.2466 35.2027 57.0856C35.002 56.9198 34.7067 56.8475 34.317 56.8687L33.8784 56.8925C33.6046 56.9037 33.4439 56.8165 33.3962 56.6312C33.3486 56.4458 33.4638 56.3174 33.7418 56.2459L38.4964 55.0233C38.7559 54.9566 38.9119 55.0252 38.9643 55.2291C39.0168 55.433 38.8878 55.5847 38.5774 55.6843L38.0634 55.8757C37.7531 55.9753 37.5754 56.1297 37.5304 56.3389C37.4991 56.5248 37.5823 56.8097 37.7798 57.1937L44.444 69.7384C44.5097 69.8401 44.5796 69.8814 44.6538 69.8624C44.7464 69.8385 44.7878 69.7686 44.7777 69.6527L44.6865 56.0403C44.6744 54.917 44.2462 54.4046 43.402 54.5031L42.9706 54.5547C42.6412 54.5801 42.455 54.5094 42.4121 54.3426C42.3597 54.1387 42.4632 54.0033 42.7227 53.9366L46.6154 52.9357C46.8935 52.8642 47.0563 52.9211 47.104 53.1065C47.1516 53.2919 47.0529 53.4457 46.8077 53.5681L46.412 53.7587C46.0789 53.9234 45.8485 54.1803 45.7209 54.5293C45.607 54.855 45.5519 55.2941 45.5556 55.8464L45.7143 74.3326C45.7248 74.5275 45.6909 74.6647 45.6126 74.7441C45.5527 74.8188 45.4857 74.8656 45.4116 74.8847ZM55.3727 72.2938C54.4829 72.5226 53.6096 72.4309 52.7527 72.0189C51.8958 71.6068 51.1159 70.9181 50.4131 69.9526C49.7241 68.9638 49.1961 67.7557 48.8291 66.3284C48.4526 64.864 48.3345 63.5209 48.4748 62.2991C48.6152 61.0773 48.9751 60.0559 49.5545 59.235C50.1339 58.4141 50.8778 57.8869 51.786 57.6534C52.8797 57.3722 53.877 57.5999 54.7778 58.3366C55.6925 59.05 56.4095 60.417 56.9291 62.4374C57.0863 63.0491 56.9333 63.4146 56.4699 63.5337L51.187 64.8921C50.8162 64.9874 50.6857 65.2483 50.7953 65.6746C51.3005 67.6395 51.9668 69.0393 52.794 69.8739C53.6212 70.7086 54.4797 71.0116 55.3695 70.7828C56.0739 70.6017 56.5842 70.2037 56.9004 69.5888C57.2165 68.9739 57.3611 68.0376 57.3342 66.7797C57.3373 66.5615 57.4316 66.4286 57.617 66.381C57.8394 66.3238 57.9705 66.4877 58.0102 66.8727C58.1378 68.5987 57.963 69.8788 57.4858 70.7129C57.0039 71.5285 56.2995 72.0555 55.3727 72.2938ZM50.9248 64.2185L53.7331 63.4964C54.6228 63.2676 54.9486 62.6898 54.7102 61.763C54.4004 60.5581 54.0091 59.6508 53.5361 59.0413C53.0632 58.4317 52.5301 58.2031 51.937 58.3556C51.2141 58.5415 50.7096 59.1159 50.4236 60.0787C50.1561 61.0368 50.146 62.3042 50.3933 63.8808C50.4325 64.1869 50.6097 64.2995 50.9248 64.2185ZM66.1652 69.2519C65.9057 69.3187 65.7521 69.2593 65.7044 69.074C65.6568 68.8886 65.7463 68.7371 65.973 68.6196L66.3686 68.4289C66.8913 68.1562 66.961 67.8122 66.5775 67.397L63.6025 64.0119C63.495 63.9012 63.3856 63.8602 63.2744 63.8888C63.1769 63.8941 63.1102 63.9804 63.0742 64.1477L62.1391 68.0046C61.9315 68.888 62.1108 69.3162 62.6769 69.2892L63.4427 69.2702C63.698 69.2638 63.8495 69.3533 63.8971 69.5387C63.9448 69.724 63.8389 69.8501 63.5794 69.9168L60.0204 70.8319C59.7608 70.8987 59.6049 70.8301 59.5524 70.6262C59.5 70.4223 59.5779 70.2639 59.786 70.1511L60.0982 69.9819C60.4266 69.7987 60.6874 69.5834 60.8807 69.3361C61.0693 69.0702 61.2607 68.5467 61.4551 67.7655L62.5403 63.455C62.6171 63.1388 62.5666 62.8653 62.3886 62.6344L58.4102 58.1141C58.0967 57.7401 57.8467 57.4981 57.6603 57.3879C57.4924 57.273 57.311 57.2209 57.1161 57.2314L56.6776 57.2553C56.4223 57.2616 56.2709 57.1721 56.2232 56.9867C56.1755 56.8014 56.2815 56.6753 56.541 56.6086L60.6561 55.5505C60.9156 55.4838 61.0692 55.5431 61.1169 55.7285C61.1645 55.9138 61.075 56.0653 60.8483 56.1829L60.4527 56.3735C59.93 56.6463 59.8603 56.9902 60.2438 57.4055L63.0782 60.5895C63.1857 60.7002 63.2858 60.7437 63.3785 60.7198C63.4712 60.696 63.5379 60.6097 63.5787 60.4608L64.432 56.8621C64.6396 55.9787 64.4603 55.5505 63.8941 55.5776L63.1283 55.5966C62.8731 55.603 62.7216 55.5135 62.6739 55.3281C62.6263 55.1427 62.7322 55.0167 62.9917 54.9499L66.5507 54.0348C66.8102 53.9681 66.9662 54.0367 67.0186 54.2406C67.071 54.4445 66.9932 54.6028 66.7851 54.7156L66.4728 54.8849C66.1397 55.0496 65.8789 55.2648 65.6903 55.5307C65.497 55.778 65.3056 56.3016 65.1159 57.1013L64.1125 61.1536C64.0172 61.4745 64.0818 61.7642 64.3064 62.0227L68.4111 66.6884C68.7479 67.076 69.0003 67.3273 69.1681 67.4423C69.3313 67.5387 69.5103 67.5816 69.7052 67.571L70.1437 67.5472C70.399 67.5408 70.5504 67.6303 70.5981 67.8157C70.6458 68.001 70.5398 68.1271 70.2803 68.1938L66.1652 69.2519ZM69.3962 50.4871C69.0069 50.5872 68.6375 50.5339 68.288 50.3274C67.957 50.1161 67.7367 49.7972 67.627 49.3709C67.5174 48.9445 67.559 48.5683 67.7518 48.242C67.9583 47.8925 68.2562 47.6677 68.6455 47.5676C69.0348 47.4675 69.3949 47.5231 69.7259 47.7344C70.0522 47.9272 70.2701 48.2368 70.3797 48.6631C70.4893 49.0894 70.4501 49.475 70.2621 49.8198C70.0741 50.1645 69.7855 50.387 69.3962 50.4871ZM71.386 67.9095C71.1079 67.981 70.9427 67.9148 70.8903 67.7109C70.8474 67.5441 70.9393 67.4019 71.1659 67.2843L71.4853 67.1429C71.9296 66.9496 72.1976 66.7621 72.2893 66.5805C72.3761 66.3803 72.3695 66.0855 72.2694 65.6963L69.8672 56.3539C69.7814 56.0202 69.6686 55.8121 69.5288 55.7294C69.4028 55.6235 69.2052 55.5854 68.9362 55.615L68.3308 55.6818C68.0851 55.7252 67.9384 55.6542 67.8907 55.4689C67.8526 55.3206 67.9747 55.1805 68.2569 55.0486C68.8077 54.8082 69.233 54.5407 69.5328 54.2463C69.8326 53.9518 70.1111 53.6134 70.3685 53.231C70.4925 53.0213 70.61 52.9021 70.7213 52.8735C70.8881 52.8306 71.0001 52.9204 71.0573 53.1428L74.1601 65.2101C74.2602 65.5994 74.3873 65.8631 74.5414 66.0014C74.6956 66.1396 74.9349 66.1867 75.2596 66.1428L75.9762 66.0475C76.1896 66.0321 76.3178 66.1078 76.3607 66.2747C76.4179 66.4971 76.3074 66.6441 76.0294 66.7156L71.386 67.9095ZM82.4515 65.3311C81.5061 65.5741 80.5724 65.4783 79.6503 65.0434C78.7421 64.5853 77.9225 63.8573 77.1916 62.8595C76.4608 61.8617 75.919 60.677 75.5663 59.3053C75.2136 57.9336 75.1191 56.6437 75.2828 55.4357C75.4464 54.2276 75.8248 53.2015 76.418 52.3573C77.0112 51.5131 77.7712 50.9719 78.698 50.7335C79.6434 50.4905 80.5702 50.598 81.4785 51.0561C82.4053 51.5095 83.2318 52.2258 83.9579 53.2051C84.6839 54.1843 85.2233 55.3598 85.576 56.7315C85.9287 58.1032 86.0256 59.4023 85.8667 60.6289C85.7264 61.8507 85.3596 62.8837 84.7664 63.7279C84.1685 64.5536 83.3968 65.088 82.4515 65.3311ZM82.2727 64.6359C84.2005 64.1402 84.5972 61.6865 83.4629 57.2749C82.3333 52.8817 80.8046 50.933 78.8768 51.4287C76.949 51.9244 76.5499 54.3688 77.6795 58.7619C78.8138 63.1736 80.3449 65.1316 82.2727 64.6359Z" fill="black"/>
</svg>
